<?xml version="1.0" encoding="UTF-8" standalone="no"?>
<!-- Created with Inkscape (http://www.inkscape.org/) -->

<svg
   width="1280"
   height="1080"
   viewBox="0 0 1280 1080"
   version="1.1"
   id="svg1"
   inkscape:version="1.4.2 (ebf0e940d0, 2025-05-08)"
   sodipodi:docname="st-pc1_sq.svg"
   inkscape:export-filename="/home/stuartsoftware/Pictures/st-pc1_sq.svg"
   inkscape:export-xdpi="97.955559"
   inkscape:export-ydpi="97.955559"
   xmlns:inkscape="http://www.inkscape.org/namespaces/inkscape"
   xmlns:sodipodi="http://sodipodi.sourceforge.net/DTD/sodipodi-0.dtd"
   xmlns="http://www.w3.org/2000/svg"
   xmlns:svg="http://www.w3.org/2000/svg">
  <sodipodi:namedview
     id="namedview1"
     pagecolor="#ffffff"
     bordercolor="#000000"
     borderopacity="0.25"
     inkscape:showpageshadow="2"
     inkscape:pageopacity="0.0"
     inkscape:pagecheckerboard="0"
     inkscape:deskcolor="#d1d1d1"
     inkscape:document-units="px"
     inkscape:zoom="0.3337963"
     inkscape:cx="653.09293"
     inkscape:cy="763.93897"
     inkscape:window-width="1276"
     inkscape:window-height="1020"
     inkscape:window-x="0"
     inkscape:window-y="0"
     inkscape:window-maximized="1"
     inkscape:current-layer="layer1">
    <inkscape:page
       x="0"
       y="0"
       width="1280"
       height="1080"
       id="page2"
       margin="0"
       bleed="0" />
  </sodipodi:namedview>
  <defs
     id="defs1" />
  <g
     inkscape:label="Layer 1"
     inkscape:groupmode="layer"
     id="layer1">
    <rect
       style="mix-blend-mode:normal;fill:#f1f1f1;fill-opacity:1;stroke:none;stroke-width:0.447019;stroke-dasharray:none"
       id="rect2"
       width="3173.2485"
       height="1138.4692"
       x="-998.79218"
       y="-30.263552"
       ry="6.8025661"
       transform="matrix(0.99999891,0.00147913,0.01161334,0.99993256,0,0)"
       sodipodi:insensitive="true" />
    <text
       xml:space="preserve"
       style="font-weight:bold;font-size:69.0754px;font-family:'Inter 28pt';-inkscape-font-specification:'Inter 28pt, Bold';text-align:end;writing-mode:lr-tb;direction:ltr;text-anchor:end;fill:#1f1f1f;fill-opacity:1;stroke-width:0.542773"
       x="1125.9614"
       y="1031.8289"
       id="text2"><tspan
         sodipodi:role="line"
         id="tspan2"
         x="1125.9614"
         y="1031.8289"
         style="font-style:normal;font-variant:normal;font-weight:800;font-stretch:normal;font-size:69.0754px;font-family:'JetBrainsMono Nerd Font Mono';-inkscape-font-specification:'JetBrainsMono Nerd Font Mono, Ultra-Bold';font-variant-ligatures:normal;font-variant-caps:normal;font-variant-numeric:normal;font-variant-east-asian:normal;fill:#1f1f1f;fill-opacity:1;stroke-width:0.542773">ST-PC_1</tspan></text>
    <text
       xml:space="preserve"
       style="font-weight:bold;font-size:37.0367px;font-family:'Inter 28pt';-inkscape-font-specification:'Inter 28pt, Bold';text-align:end;writing-mode:lr-tb;direction:ltr;text-anchor:end;fill:#1f1f1f;fill-opacity:1;stroke-width:0.291023"
       x="1170.1759"
       y="1021.0154"
       id="text2-7"><tspan
         sodipodi:role="line"
         id="tspan2-9"
         x="1170.1759"
         y="1021.0154"
         style="font-style:normal;font-variant:normal;font-weight:800;font-stretch:normal;font-size:37.0367px;font-family:'JetBrainsMono Nerd Font Mono';-inkscape-font-specification:'JetBrainsMono Nerd Font Mono, Ultra-Bold';font-variant-ligatures:normal;font-variant-caps:normal;font-variant-numeric:normal;font-variant-east-asian:normal;fill:#1f1f1f;fill-opacity:1;stroke-width:0.291023">•</tspan></text>
    <g
       transform="matrix(0.3025427,0,0,0.3025427,748.59659,935.56008)"
       id="g2424"
       style="fill:#1a1a1a">
      <g
         transform="matrix(0.6378586,0,0,0.6378586,36.486487,2.17139)"
         id="g2809"
         style="fill:#ffffff;fill-opacity:1" />
      <g
         transform="matrix(0.9443373,0,0.01336345,0.9443373,78.345657,-412.48879)"
         id="g5326"
         style="fill:#ffffff;fill-opacity:1;stroke:none" />
      <path
         d="m 105.8125,16.625 c -7.39687,18.135158 -11.858304,29.997682 -20.09375,47.59375 5.04936,5.35232 11.247211,11.585364 21.3125,18.625 C 96.210077,78.390904 88.828713,73.920352 83.3125,69.28125 72.7727,91.274163 56.259864,122.60209 22.75,182.8125 49.087628,167.60733 69.504089,158.23318 88.53125,154.65625 87.714216,151.1422 87.2497,147.34107 87.28125,143.375 l 0.03125,-0.84375 c 0.417917,-16.87382 9.195665,-29.84979 19.59375,-28.96875 10.39809,0.88104 18.48041,15.28242 18.0625,32.15625 -0.0786,3.17512 -0.43674,6.22955 -1.0625,9.0625 18.82058,3.68164 39.01873,13.03179 65,28.03125 -5.123,-9.4318 -9.69572,-17.93388 -14.0625,-26.03125 -6.87839,-5.33121 -14.05289,-12.2698 -28.6875,-19.78125 10.05899,2.61375 17.2611,5.62932 22.875,9 C 124.63297,63.338161 121.03766,52.354109 105.8125,16.625 Z"
         transform="matrix(1.1433333,0,0,1.1433333,22.920168,121.64318)"
         id="path2518"
         style="fill:#1f1f1f;fill-opacity:1;fill-rule:evenodd;stroke:none" />
      <g
         id="text2634"
         style="font-style:normal;font-weight:normal;font-size:8.44138px;font-family:'DejaVu Sans Mono';fill:#ffffff;fill-opacity:1;stroke:none">
        <path
           d="m 685.46692,263.83624 v -5.32944 h -1.99082 v -0.71307 h 4.7895 v 0.71307 h -1.99906 v 5.32944 h -0.79962"
           id="path7858"
           style="fill:#ffffff" />
      </g>
      <g
         id="text2638"
         style="font-style:normal;font-weight:normal;font-size:8.2513px;font-family:'DejaVu Sans Mono';fill:#ffffff;fill-opacity:1;stroke:none">
        <path
           d="m 239.84053,313.69965 v -5.20945 h -1.94598 v -0.697 h 4.68164 v 0.697 h -1.95404 v 5.20945 h -0.78162"
           id="path7853"
           style="fill:#ffffff" />
        <path
           d="m 243.39004,313.69965 v -5.90645 h 1.17646 l 1.39805,4.18205 c 0.12892,0.38947 0.22293,0.6809 0.28202,0.87429 0.0671,-0.21488 0.1719,-0.53048 0.31426,-0.94681 l 1.41417,-4.10953 h 1.05155 v 5.90645 h -0.75341 v -4.94353 l -1.71634,4.94353 h -0.70506 l -1.70828,-5.02814 v 5.02814 h -0.75342"
           id="path7855"
           style="fill:#ffffff" />
      </g>
    </g>
    <g
       id="g2"
       transform="matrix(0.63928221,0,0,0.63928221,1018.5367,882.93077)"
       style="fill:#1f1f1f;fill-opacity:1">
      <path
         id="path44-3"
         d="m 280.7082,177.4013 c -0.0523,0.10807 -0.10471,0.21659 -0.15627,0.32511 v 0 c -1.85728,3.92125 0.50433,8.53057 4.75585,9.39529 v 0 c 3.62479,0.73741 7.67034,2.17735 11.72202,4.2921 v 0 c 11.05567,5.77067 17.96629,14.3798 15.43535,19.22897 v 0 c -2.53098,4.84901 -13.54543,4.10176 -24.60123,-1.66891 v 0 c -0.55299,-0.28874 -1.09546,-0.58449 -1.62687,-0.88648 v 0 c -2.36127,-1.34187 -4.93979,1.38241 -3.47343,3.66843 v 0 c 3.32143,5.17829 8.05059,9.55567 13.99266,12.49237 v 0 c 17.04461,8.42398 37.98406,1.54548 46.73402,-15.33395 v 0 c 0.0686,-0.13236 0.13623,-0.26503 0.20304,-0.39785 v 0 c 3.05773,-6.08415 -0.29693,-13.36974 -6.85126,-15.21544 v 0 c -2.89314,-0.81463 -5.97308,-2.03291 -9.05684,-3.64264 v 0 c -11.05588,-5.77067 -17.96643,-14.3798 -15.43535,-19.22882 v 0 c 2.53096,-4.849 13.54534,-4.1019 24.60121,1.66905 v 0 c 1.51657,0.79288 2.99836,-1.09754 1.87652,-2.39005 v 0 c -2.95772,-3.40818 -6.6291,-6.30254 -10.93866,-8.43874 v 0 c -4.95158,-2.45434 -10.22902,-3.61464 -15.43684,-3.61493 v 0 c -13.05536,-5.1e-4 -25.68648,7.28693 -31.74392,19.74649"
         style="fill:#1f1f1f;fill-opacity:1;stroke:none;stroke-width:0.149063"
         sodipodi:nodetypes="cssssssssssssssssssssssssssssssssssc" />
    </g>
    <ellipse
       style="fill:#1f1f1f;fill-opacity:0.65098;stroke-width:0.339"
       id="path2"
       cx="-422.43762"
       cy="-714.14929"
       rx="1466.9663"
       ry="1493.5177" />
    <ellipse
       style="fill:#1f1f1f;fill-opacity:0.65098;stroke-width:0.339"
       id="path2-1"
       cx="-627.58087"
       cy="1682.5051"
       rx="1466.9663"
       ry="1493.5177" />
  </g>
</svg>
